{
	"asset":{
		"generator":"Khronos glTF Blender I/O v4.0.44",
		"version":"2.0"
	},
	"extensionsUsed":[
		"KHR_materials_emissive_strength"
	],
	"scene":0,
	"scenes":[
		{
			"name":"Scene",
			"nodes":[
				0,
				1
			]
		}
	],
	"nodes":[
		{
			"mesh":0,
			"name":"Body"
		},
		{
			"mesh":1,
			"name":"Wheel",
			"translation":[
				-0.9256070256233215,
				0.060742419213056564,
				-1.2685621976852417
			]
		}
	],
	"materials":[
		{
			"doubleSided":true,
			"name":"CarBody",
			"pbrMetallicRoughness":{
				"baseColorFactor":[
					0.349541038274765,
					0.023706333711743355,
					0.012861330062150955,
					1
				],
				"metallicFactor":0.14772726595401764,
				"roughnessFactor":0
			}
		},
		{
			"doubleSided":true,
			"name":"WindShield",
			"pbrMetallicRoughness":{
				"baseColorFactor":[
					0.12483500689268112,
					0.4026445746421814,
					0.4682652950286865,
					1
				],
				"roughnessFactor":0
			}
		},
		{
			"doubleSided":true,
			"name":"Bumpers",
			"pbrMetallicRoughness":{
				"baseColorFactor":[
					0.21181219816207886,
					0.2682753801345825,
					0.2655399441719055,
					1
				],
				"roughnessFactor":0
			}
		},
		{
			"doubleSided":true,
			"emissiveFactor":[
				1,
				0.8425991535186768,
				0.32914721965789795
			],
			"extensions":{
				"KHR_materials_emissive_strength":{
					"emissiveStrength":10.499999046325684
				}
			},
			"name":"LightFront",
			"pbrMetallicRoughness":{
				"baseColorFactor":[
					0.8000074625015259,
					0.7596163749694824,
					0.2470678687095642,
					1
				],
				"metallicFactor":0
			}
		},
		{
			"doubleSided":true,
			"emissiveFactor":[
				1,
				0,
				0.004156805109232664
			],
			"name":"LightRear",
			"pbrMetallicRoughness":{
				"baseColorFactor":[
					0.8002663850784302,
					0.0010882301721721888,
					0,
					1
				],
				"metallicFactor":0
			}
		},
		{
			"doubleSided":true,
			"name":"LicensePlate",
			"pbrMetallicRoughness":{
				"baseColorFactor":[
					0.800000011920929,
					0.800000011920929,
					0.800000011920929,
					1
				],
				"metallicFactor":0
			}
		},
		{
			"doubleSided":true,
			"name":"WheelRubber",
			"pbrMetallicRoughness":{
				"baseColorFactor":[
					0.009907396510243416,
					0.009907396510243416,
					0.009907396510243416,
					1
				],
				"metallicFactor":0
			}
		},
		{
			"doubleSided":true,
			"name":"WheelMetal",
			"pbrMetallicRoughness":{
				"baseColorFactor":[
					0.7814913988113403,
					1,
					0.9894341230392456,
					1
				],
				"roughnessFactor":0
			}
		}
	],
	"meshes":[
		{
			"name":"Cube",
			"primitives":[
				{
					"attributes":{
						"POSITION":0,
						"NORMAL":1,
						"TEXCOORD_0":2
					},
					"indices":3,
					"material":0
				},
				{
					"attributes":{
						"POSITION":4,
						"NORMAL":5,
						"TEXCOORD_0":6
					},
					"indices":7,
					"material":1
				},
				{
					"attributes":{
						"POSITION":8,
						"NORMAL":9,
						"TEXCOORD_0":10
					},
					"indices":11,
					"material":2
				},
				{
					"attributes":{
						"POSITION":12,
						"NORMAL":13,
						"TEXCOORD_0":14
					},
					"indices":15,
					"material":3
				},
				{
					"attributes":{
						"POSITION":16,
						"NORMAL":17,
						"TEXCOORD_0":18
					},
					"indices":19,
					"material":4
				},
				{
					"attributes":{
						"POSITION":20,
						"NORMAL":21,
						"TEXCOORD_0":22
					},
					"indices":23,
					"material":5
				}
			]
		},
		{
			"name":"Cylinder",
			"primitives":[
				{
					"attributes":{
						"POSITION":24,
						"NORMAL":25,
						"TEXCOORD_0":26
					},
					"indices":27,
					"material":6
				},
				{
					"attributes":{
						"POSITION":28,
						"NORMAL":29,
						"TEXCOORD_0":30
					},
					"indices":31,
					"material":7
				}
			]
		}
	],
	"accessors":[
		{
			"bufferView":0,
			"componentType":5126,
			"count":212,
			"max":[
				1.0492810010910034,
				1,
				1.6441709995269775
			],
			"min":[
				-1.0492810010910034,
				0.12158143520355225,
				-2.275634288787842
			],
			"type":"VEC3"
		},
		{
			"bufferView":1,
			"componentType":5126,
			"count":212,
			"type":"VEC3"
		},
		{
			"bufferView":2,
			"componentType":5126,
			"count":212,
			"type":"VEC2"
		},
		{
			"bufferView":3,
			"componentType":5123,
			"count":654,
			"type":"SCALAR"
		},
		{
			"bufferView":4,
			"componentType":5126,
			"count":50,
			"max":[
				1.0432069301605225,
				0.9566563963890076,
				1.1039766073226929
			],
			"min":[
				-1.0432069301605225,
				0.5825526118278503,
				-1.3359025716781616
			],
			"type":"VEC3"
		},
		{
			"bufferView":5,
			"componentType":5126,
			"count":50,
			"type":"VEC3"
		},
		{
			"bufferView":6,
			"componentType":5126,
			"count":50,
			"type":"VEC2"
		},
		{
			"bufferView":7,
			"componentType":5123,
			"count":102,
			"type":"SCALAR"
		},
		{
			"bufferView":8,
			"componentType":5126,
			"count":141,
			"max":[
				0.9654339551925659,
				0.4737457036972046,
				1.6746413707733154
			],
			"min":[
				-0.9654339551925659,
				2.2351741790771484e-08,
				-2.3619437217712402
			],
			"type":"VEC3"
		},
		{
			"bufferView":9,
			"componentType":5126,
			"count":141,
			"type":"VEC3"
		},
		{
			"bufferView":10,
			"componentType":5126,
			"count":141,
			"type":"VEC2"
		},
		{
			"bufferView":11,
			"componentType":5123,
			"count":504,
			"type":"SCALAR"
		},
		{
			"bufferView":12,
			"componentType":5126,
			"count":8,
			"max":[
				0.8125407099723816,
				0.4671779274940491,
				-2.115941047668457
			],
			"min":[
				-0.8125407099723816,
				0.3250545561313629,
				-2.251976728439331
			],
			"type":"VEC3"
		},
		{
			"bufferView":13,
			"componentType":5126,
			"count":8,
			"type":"VEC3"
		},
		{
			"bufferView":14,
			"componentType":5126,
			"count":8,
			"type":"VEC2"
		},
		{
			"bufferView":15,
			"componentType":5123,
			"count":12,
			"type":"SCALAR"
		},
		{
			"bufferView":16,
			"componentType":5126,
			"count":8,
			"max":[
				0.8125407099723816,
				0.5186924934387207,
				1.6340687274932861
			],
			"min":[
				-0.8125407099723816,
				0.3523271977901459,
				1.5396029949188232
			],
			"type":"VEC3"
		},
		{
			"bufferView":17,
			"componentType":5126,
			"count":8,
			"type":"VEC3"
		},
		{
			"bufferView":18,
			"componentType":5126,
			"count":8,
			"type":"VEC2"
		},
		{
			"bufferView":19,
			"componentType":5123,
			"count":12,
			"type":"SCALAR"
		},
		{
			"bufferView":20,
			"componentType":5126,
			"count":12,
			"max":[
				0.19554521143436432,
				0.5124511122703552,
				1.633682131767273
			],
			"min":[
				-0.19554521143436432,
				2.2351741790771484e-08,
				-2.3619437217712402
			],
			"type":"VEC3"
		},
		{
			"bufferView":21,
			"componentType":5126,
			"count":12,
			"type":"VEC3"
		},
		{
			"bufferView":22,
			"componentType":5126,
			"count":12,
			"type":"VEC2"
		},
		{
			"bufferView":23,
			"componentType":5123,
			"count":24,
			"type":"SCALAR"
		},
		{
			"bufferView":24,
			"componentType":5126,
			"count":67,
			"max":[
				0.0831688642501831,
				0.3326765298843384,
				0.3326765298843384
			],
			"min":[
				-0.08316943049430847,
				-0.3326764404773712,
				-0.33267641067504883
			],
			"type":"VEC3"
		},
		{
			"bufferView":25,
			"componentType":5126,
			"count":67,
			"type":"VEC3"
		},
		{
			"bufferView":26,
			"componentType":5126,
			"count":67,
			"type":"VEC2"
		},
		{
			"bufferView":27,
			"componentType":5123,
			"count":234,
			"type":"SCALAR"
		},
		{
			"bufferView":28,
			"componentType":5126,
			"count":16,
			"max":[
				-0.08316943049430847,
				0.24248576164245605,
				0.24248577654361725
			],
			"min":[
				-0.08316943049430847,
				-0.2424856722354889,
				-0.2424856275320053
			],
			"type":"VEC3"
		},
		{
			"bufferView":29,
			"componentType":5126,
			"count":16,
			"type":"VEC3"
		},
		{
			"bufferView":30,
			"componentType":5126,
			"count":16,
			"type":"VEC2"
		},
		{
			"bufferView":31,
			"componentType":5123,
			"count":42,
			"type":"SCALAR"
		}
	],
	"bufferViews":[
		{
			"buffer":0,
			"byteLength":2544,
			"byteOffset":0,
			"target":34962
		},
		{
			"buffer":0,
			"byteLength":2544,
			"byteOffset":2544,
			"target":34962
		},
		{
			"buffer":0,
			"byteLength":1696,
			"byteOffset":5088,
			"target":34962
		},
		{
			"buffer":0,
			"byteLength":1308,
			"byteOffset":6784,
			"target":34963
		},
		{
			"buffer":0,
			"byteLength":600,
			"byteOffset":8092,
			"target":34962
		},
		{
			"buffer":0,
			"byteLength":600,
			"byteOffset":8692,
			"target":34962
		},
		{
			"buffer":0,
			"byteLength":400,
			"byteOffset":9292,
			"target":34962
		},
		{
			"buffer":0,
			"byteLength":204,
			"byteOffset":9692,
			"target":34963
		},
		{
			"buffer":0,
			"byteLength":1692,
			"byteOffset":9896,
			"target":34962
		},
		{
			"buffer":0,
			"byteLength":1692,
			"byteOffset":11588,
			"target":34962
		},
		{
			"buffer":0,
			"byteLength":1128,
			"byteOffset":13280,
			"target":34962
		},
		{
			"buffer":0,
			"byteLength":1008,
			"byteOffset":14408,
			"target":34963
		},
		{
			"buffer":0,
			"byteLength":96,
			"byteOffset":15416,
			"target":34962
		},
		{
			"buffer":0,
			"byteLength":96,
			"byteOffset":15512,
			"target":34962
		},
		{
			"buffer":0,
			"byteLength":64,
			"byteOffset":15608,
			"target":34962
		},
		{
			"buffer":0,
			"byteLength":24,
			"byteOffset":15672,
			"target":34963
		},
		{
			"buffer":0,
			"byteLength":96,
			"byteOffset":15696,
			"target":34962
		},
		{
			"buffer":0,
			"byteLength":96,
			"byteOffset":15792,
			"target":34962
		},
		{
			"buffer":0,
			"byteLength":64,
			"byteOffset":15888,
			"target":34962
		},
		{
			"buffer":0,
			"byteLength":24,
			"byteOffset":15952,
			"target":34963
		},
		{
			"buffer":0,
			"byteLength":144,
			"byteOffset":15976,
			"target":34962
		},
		{
			"buffer":0,
			"byteLength":144,
			"byteOffset":16120,
			"target":34962
		},
		{
			"buffer":0,
			"byteLength":96,
			"byteOffset":16264,
			"target":34962
		},
		{
			"buffer":0,
			"byteLength":48,
			"byteOffset":16360,
			"target":34963
		},
		{
			"buffer":0,
			"byteLength":804,
			"byteOffset":16408,
			"target":34962
		},
		{
			"buffer":0,
			"byteLength":804,
			"byteOffset":17212,
			"target":34962
		},
		{
			"buffer":0,
			"byteLength":536,
			"byteOffset":18016,
			"target":34962
		},
		{
			"buffer":0,
			"byteLength":468,
			"byteOffset":18552,
			"target":34963
		},
		{
			"buffer":0,
			"byteLength":192,
			"byteOffset":19020,
			"target":34962
		},
		{
			"buffer":0,
			"byteLength":192,
			"byteOffset":19212,
			"target":34962
		},
		{
			"buffer":0,
			"byteLength":128,
			"byteOffset":19404,
			"target":34962
		},
		{
			"buffer":0,
			"byteLength":84,
			"byteOffset":19532,
			"target":34963
		}
	],
	"buffers":[
		{
			"byteLength":19616,
			"uri":"car_body.bin"
		}
	]
}
