{
	"asset":{
		"generator":"Khronos glTF Blender I/O v4.0.44",
		"version":"2.0"
	},
	"extensionsUsed":[
		"KHR_materials_emissive_strength"
	],
	"scene":0,
	"scenes":[
		{
			"name":"Scene",
			"nodes":[
				0,
				1,
				2,
				3,
				4,
				5
			]
		}
	],
	"nodes":[
		{
			"mesh":0,
			"name":"Cube"
		},
		{
			"name":"Empty"
		},
		{
			"mesh":1,
			"name":"Cylinder",
			"translation":[
				-0.9256070256233215,
				0.060742419213056564,
				-1.2685621976852417
			]
		},
		{
			"mesh":2,
			"name":"Cylinder.001",
			"rotation":[
				0,
				0,
				0.7071068286895752,
				0.7071068286895752
			],
			"scale":[
				0.8316912055015564,
				0.8316912055015564,
				0.8316912055015564
			],
			"translation":[
				-0.9256073236465454,
				0.060742445290088654,
				0.9909399747848511
			]
		},
		{
			"mesh":3,
			"name":"Cylinder.002",
			"rotation":[
				0,
				0,
				0.7071068286895752,
				0.7071068286895752
			],
			"scale":[
				0.8316912055015564,
				0.8316912055015564,
				0.8316912055015564
			],
			"translation":[
				0.9256070256233215,
				0.060742445290088654,
				-1.2685621976852417
			]
		},
		{
			"mesh":4,
			"name":"Cylinder.003",
			"rotation":[
				0,
				0,
				0.7071068286895752,
				0.7071068286895752
			],
			"scale":[
				0.8316912055015564,
				0.8316912055015564,
				0.8316912055015564
			],
			"translation":[
				0.9256070256233215,
				0.060742445290088654,
				0.9909399747848511
			]
		}
	],
	"materials":[
		{
			"doubleSided":true,
			"name":"CarBody",
			"pbrMetallicRoughness":{
				"baseColorFactor":[
					0.349541038274765,
					0.023706333711743355,
					0.012861330062150955,
					1
				],
				"metallicFactor":0.14772726595401764,
				"roughnessFactor":0
			}
		},
		{
			"doubleSided":true,
			"name":"Glass",
			"pbrMetallicRoughness":{
				"baseColorFactor":[
					0.12483500689268112,
					0.4026445746421814,
					0.4682652950286865,
					1
				],
				"roughnessFactor":0
			}
		},
		{
			"doubleSided":true,
			"name":"Metal",
			"pbrMetallicRoughness":{
				"baseColorFactor":[
					0.21181219816207886,
					0.2682753801345825,
					0.2655399441719055,
					1
				],
				"roughnessFactor":0
			}
		},
		{
			"doubleSided":true,
			"emissiveFactor":[
				1,
				0.8425991535186768,
				0.32914721965789795
			],
			"extensions":{
				"KHR_materials_emissive_strength":{
					"emissiveStrength":10.499999046325684
				}
			},
			"name":"Light",
			"pbrMetallicRoughness":{
				"baseColorFactor":[
					0.8000074625015259,
					0.7596163749694824,
					0.2470678687095642,
					1
				],
				"metallicFactor":0
			}
		},
		{
			"doubleSided":true,
			"name":"Wheel",
			"pbrMetallicRoughness":{
				"baseColorFactor":[
					0.009907396510243416,
					0.009907396510243416,
					0.009907396510243416,
					1
				],
				"metallicFactor":0
			}
		}
	],
	"meshes":[
		{
			"name":"Cube",
			"primitives":[
				{
					"attributes":{
						"POSITION":0,
						"NORMAL":1,
						"TEXCOORD_0":2
					},
					"indices":3,
					"material":0
				},
				{
					"attributes":{
						"POSITION":4,
						"NORMAL":5,
						"TEXCOORD_0":6
					},
					"indices":7,
					"material":1
				},
				{
					"attributes":{
						"POSITION":8,
						"NORMAL":9,
						"TEXCOORD_0":10
					},
					"indices":11,
					"material":2
				},
				{
					"attributes":{
						"POSITION":12,
						"NORMAL":13,
						"TEXCOORD_0":14
					},
					"indices":15,
					"material":3
				}
			]
		},
		{
			"name":"Cylinder",
			"primitives":[
				{
					"attributes":{
						"POSITION":16,
						"NORMAL":17,
						"TEXCOORD_0":18
					},
					"indices":19,
					"material":4
				},
				{
					"attributes":{
						"POSITION":20,
						"NORMAL":21,
						"TEXCOORD_0":22
					},
					"indices":23,
					"material":2
				}
			]
		},
		{
			"name":"Cylinder.001",
			"primitives":[
				{
					"attributes":{
						"POSITION":24,
						"NORMAL":25,
						"TEXCOORD_0":26
					},
					"indices":27,
					"material":4
				}
			]
		},
		{
			"name":"Cylinder.002",
			"primitives":[
				{
					"attributes":{
						"POSITION":28,
						"NORMAL":29,
						"TEXCOORD_0":30
					},
					"indices":27,
					"material":4
				}
			]
		},
		{
			"name":"Cylinder.003",
			"primitives":[
				{
					"attributes":{
						"POSITION":31,
						"NORMAL":32,
						"TEXCOORD_0":33
					},
					"indices":27,
					"material":4
				}
			]
		}
	],
	"accessors":[
		{
			"bufferView":0,
			"componentType":5126,
			"count":146,
			"max":[
				0.932384192943573,
				1,
				1.6441709995269775
			],
			"min":[
				-0.932384192943573,
				2.60770320892334e-08,
				-2.275634288787842
			],
			"type":"VEC3"
		},
		{
			"bufferView":1,
			"componentType":5126,
			"count":146,
			"type":"VEC3"
		},
		{
			"bufferView":2,
			"componentType":5126,
			"count":146,
			"type":"VEC2"
		},
		{
			"bufferView":3,
			"componentType":5123,
			"count":468,
			"type":"SCALAR"
		},
		{
			"bufferView":4,
			"componentType":5126,
			"count":48,
			"max":[
				0.932384192943573,
				1,
				1.1039766073226929
			],
			"min":[
				-0.932384192943573,
				0.6351926326751709,
				-1.3359025716781616
			],
			"type":"VEC3"
		},
		{
			"bufferView":5,
			"componentType":5126,
			"count":48,
			"type":"VEC3"
		},
		{
			"bufferView":6,
			"componentType":5126,
			"count":48,
			"type":"VEC2"
		},
		{
			"bufferView":7,
			"componentType":5123,
			"count":108,
			"type":"SCALAR"
		},
		{
			"bufferView":8,
			"componentType":5126,
			"count":122,
			"max":[
				0.9654339551925659,
				0.13986867666244507,
				1.6746413707733154
			],
			"min":[
				-0.9654339551925659,
				2.2351741790771484e-08,
				-2.3619437217712402
			],
			"type":"VEC3"
		},
		{
			"bufferView":9,
			"componentType":5126,
			"count":122,
			"type":"VEC3"
		},
		{
			"bufferView":10,
			"componentType":5126,
			"count":122,
			"type":"VEC2"
		},
		{
			"bufferView":11,
			"componentType":5123,
			"count":444,
			"type":"SCALAR"
		},
		{
			"bufferView":12,
			"componentType":5126,
			"count":8,
			"max":[
				0.8125407099723816,
				0.4671779274940491,
				-2.115941047668457
			],
			"min":[
				-0.8125407099723816,
				0.3250545561313629,
				-2.251976728439331
			],
			"type":"VEC3"
		},
		{
			"bufferView":13,
			"componentType":5126,
			"count":8,
			"type":"VEC3"
		},
		{
			"bufferView":14,
			"componentType":5126,
			"count":8,
			"type":"VEC2"
		},
		{
			"bufferView":15,
			"componentType":5123,
			"count":12,
			"type":"SCALAR"
		},
		{
			"bufferView":16,
			"componentType":5126,
			"count":67,
			"max":[
				0.0831688642501831,
				0.3326765298843384,
				0.3326765298843384
			],
			"min":[
				-0.08316943049430847,
				-0.3326764404773712,
				-0.33267641067504883
			],
			"type":"VEC3"
		},
		{
			"bufferView":17,
			"componentType":5126,
			"count":67,
			"type":"VEC3"
		},
		{
			"bufferView":18,
			"componentType":5126,
			"count":67,
			"type":"VEC2"
		},
		{
			"bufferView":19,
			"componentType":5123,
			"count":234,
			"type":"SCALAR"
		},
		{
			"bufferView":20,
			"componentType":5126,
			"count":16,
			"max":[
				-0.08316943049430847,
				0.24248576164245605,
				0.24248577654361725
			],
			"min":[
				-0.08316943049430847,
				-0.2424856722354889,
				-0.2424856275320053
			],
			"type":"VEC3"
		},
		{
			"bufferView":21,
			"componentType":5126,
			"count":16,
			"type":"VEC3"
		},
		{
			"bufferView":22,
			"componentType":5126,
			"count":16,
			"type":"VEC2"
		},
		{
			"bufferView":23,
			"componentType":5123,
			"count":42,
			"type":"SCALAR"
		},
		{
			"bufferView":24,
			"componentType":5126,
			"count":96,
			"max":[
				0.4000000059604645,
				0.10000000149011612,
				0.4000000059604645
			],
			"min":[
				-0.4000000059604645,
				-0.10000000149011612,
				-0.4000000059604645
			],
			"type":"VEC3"
		},
		{
			"bufferView":25,
			"componentType":5126,
			"count":96,
			"type":"VEC3"
		},
		{
			"bufferView":26,
			"componentType":5126,
			"count":96,
			"type":"VEC2"
		},
		{
			"bufferView":27,
			"componentType":5123,
			"count":180,
			"type":"SCALAR"
		},
		{
			"bufferView":28,
			"componentType":5126,
			"count":96,
			"max":[
				0.4000000059604645,
				0.10000000149011612,
				0.4000000059604645
			],
			"min":[
				-0.4000000059604645,
				-0.10000000149011612,
				-0.4000000059604645
			],
			"type":"VEC3"
		},
		{
			"bufferView":29,
			"componentType":5126,
			"count":96,
			"type":"VEC3"
		},
		{
			"bufferView":30,
			"componentType":5126,
			"count":96,
			"type":"VEC2"
		},
		{
			"bufferView":31,
			"componentType":5126,
			"count":96,
			"max":[
				0.4000000059604645,
				0.10000000149011612,
				0.4000000059604645
			],
			"min":[
				-0.4000000059604645,
				-0.10000000149011612,
				-0.4000000059604645
			],
			"type":"VEC3"
		},
		{
			"bufferView":32,
			"componentType":5126,
			"count":96,
			"type":"VEC3"
		},
		{
			"bufferView":33,
			"componentType":5126,
			"count":96,
			"type":"VEC2"
		}
	],
	"bufferViews":[
		{
			"buffer":0,
			"byteLength":1752,
			"byteOffset":0,
			"target":34962
		},
		{
			"buffer":0,
			"byteLength":1752,
			"byteOffset":1752,
			"target":34962
		},
		{
			"buffer":0,
			"byteLength":1168,
			"byteOffset":3504,
			"target":34962
		},
		{
			"buffer":0,
			"byteLength":936,
			"byteOffset":4672,
			"target":34963
		},
		{
			"buffer":0,
			"byteLength":576,
			"byteOffset":5608,
			"target":34962
		},
		{
			"buffer":0,
			"byteLength":576,
			"byteOffset":6184,
			"target":34962
		},
		{
			"buffer":0,
			"byteLength":384,
			"byteOffset":6760,
			"target":34962
		},
		{
			"buffer":0,
			"byteLength":216,
			"byteOffset":7144,
			"target":34963
		},
		{
			"buffer":0,
			"byteLength":1464,
			"byteOffset":7360,
			"target":34962
		},
		{
			"buffer":0,
			"byteLength":1464,
			"byteOffset":8824,
			"target":34962
		},
		{
			"buffer":0,
			"byteLength":976,
			"byteOffset":10288,
			"target":34962
		},
		{
			"buffer":0,
			"byteLength":888,
			"byteOffset":11264,
			"target":34963
		},
		{
			"buffer":0,
			"byteLength":96,
			"byteOffset":12152,
			"target":34962
		},
		{
			"buffer":0,
			"byteLength":96,
			"byteOffset":12248,
			"target":34962
		},
		{
			"buffer":0,
			"byteLength":64,
			"byteOffset":12344,
			"target":34962
		},
		{
			"buffer":0,
			"byteLength":24,
			"byteOffset":12408,
			"target":34963
		},
		{
			"buffer":0,
			"byteLength":804,
			"byteOffset":12432,
			"target":34962
		},
		{
			"buffer":0,
			"byteLength":804,
			"byteOffset":13236,
			"target":34962
		},
		{
			"buffer":0,
			"byteLength":536,
			"byteOffset":14040,
			"target":34962
		},
		{
			"buffer":0,
			"byteLength":468,
			"byteOffset":14576,
			"target":34963
		},
		{
			"buffer":0,
			"byteLength":192,
			"byteOffset":15044,
			"target":34962
		},
		{
			"buffer":0,
			"byteLength":192,
			"byteOffset":15236,
			"target":34962
		},
		{
			"buffer":0,
			"byteLength":128,
			"byteOffset":15428,
			"target":34962
		},
		{
			"buffer":0,
			"byteLength":84,
			"byteOffset":15556,
			"target":34963
		},
		{
			"buffer":0,
			"byteLength":1152,
			"byteOffset":15640,
			"target":34962
		},
		{
			"buffer":0,
			"byteLength":1152,
			"byteOffset":16792,
			"target":34962
		},
		{
			"buffer":0,
			"byteLength":768,
			"byteOffset":17944,
			"target":34962
		},
		{
			"buffer":0,
			"byteLength":360,
			"byteOffset":18712,
			"target":34963
		},
		{
			"buffer":0,
			"byteLength":1152,
			"byteOffset":19072,
			"target":34962
		},
		{
			"buffer":0,
			"byteLength":1152,
			"byteOffset":20224,
			"target":34962
		},
		{
			"buffer":0,
			"byteLength":768,
			"byteOffset":21376,
			"target":34962
		},
		{
			"buffer":0,
			"byteLength":1152,
			"byteOffset":22144,
			"target":34962
		},
		{
			"buffer":0,
			"byteLength":1152,
			"byteOffset":23296,
			"target":34962
		},
		{
			"buffer":0,
			"byteLength":768,
			"byteOffset":24448,
			"target":34962
		}
	],
	"buffers":[
		{
			"byteLength":25216,
			"uri":"car_body.bin"
		}
	]
}
